<?xml version="1.0" encoding="utf-8"?>
<?xml-stylesheet type="text/xsl" href="rss1.xsl"?>
<rss version="2.0" xmlns:atom="http://www.w3.org/2005/Atom" xmlns:content="http://purl.org/rss/1.0/modules/content/" xmlns:dc="http://purl.org/dc/elements/1.1/" xmlns:media="http://search.yahoo.com/mrss/">
<channel>
 <title>Getty</title>
 <link>http://www.gettyimg.com/</link>
 <atom:link href="http://www.gettyimg.com/" rel="self" type="application/rss+xml" />

 
                <item>
                <title><![CDATA[【Singles (lossy)】M4A - Taylor Swift - Today Was A Fairytale (International Pop Mix)]]></title>
                <link><![CDATA[https://sharemania.us/threads/taylor-swift-today-was-a-fairytale-international-pop-mix.229064/]]></link>
                <description><![CDATA[<article>
<blockquote class="messageText SelectQuoteContainer ugc baseHtml">
Here's Taylor's '<b>International or Pop Mix</b>' of <b>'Today Was A Fairytale</b>'<br>
<br>
<div class="bbCodeBlock bbCodeVfcHH HiddenContent">
<div class="attribution type">Hidden Content:</div>
<blockquote>You must either reply or click 'Like' to see the hidden information contained here.</blockquote>
</div>i am looking for a flac version here <a href="https://sharemania.us/threads/taylor-swift-today-was-a-fairytale-pop-mix-flac.229060/" class="internalLink">https://sharemania.us/threads/taylor-swift-today-was-a-fairytale-pop-mix-flac.229060/</a>
<div class="messageTextEndMarker">&nbsp;</div>
</blockquote>
</article>]]></description>
                <author><![CDATA[taseci5000]]></author>
                </item>

                
                <item>
                <title><![CDATA[【Cinema Center】SERIES - Zip Zip (2015) 1080p YouTube Complete]]></title>
                <link><![CDATA[https://sharemania.us/threads/zip-zip-2015-1080p-youtube-complete.229065/]]></link>
                <description><![CDATA[<article>
<blockquote class="messageText SelectQuoteContainer ugc baseHtml">
<img src="https://m.media-amazon.com/images/M/MV5BMGU5YzhiM2EtYTUzZi00YTc4LTkzMzEtNTkxYjdjODI1ZWFmXkEyXkFqcGdeQXVyMzM2NzI0Nzg@._V1_.jpg" class="bbCodeImage LbImage" alt="[​IMG]" data-url="https://m.media-amazon.com/images/M/MV5BMGU5YzhiM2EtYTUzZi00YTc4LTkzMzEtNTkxYjdjODI1ZWFmXkEyXkFqcGdeQXVyMzM2NzI0Nzg@._V1_.jpg" style=""><br>
<br>
<b>Synopsis:</b> Tired of living in the forest, Washington the fox leader of 20th Century Fox, Sam the boar, his sister Eugenie, and Suzie the blackbird decide to leave the wilderness and go to the city. To avoid being seen by people as wild animals and getting caught by animal control, the four take animal costumes to disguise themselves as a dog (Washington), a cat (Sam), a rabbit (Eugenie) and a canary (Suzie) and pose as common house pets. They are soon adopted by the Livingstones, and now live in their house with their cat, Victoria.<br>
<br>
<b>Download:</b><br>
<div class="bbCodeBlock bbCodeVfcHH HiddenContent">
<div class="attribution type">Hidden Content:</div>
<blockquote>You must either reply or click 'Like' to see the hidden information contained here.</blockquote>
</div><b>MediaInfo:</b>
<div class="ToggleTriggerAnchor bbCodeSpoilerContainer">
<button type="button" class="button bbCodeSpoilerButton ToggleTrigger Tooltip JsOnly" data-target="> .SpoilerTarget"><span>Spoiler</span></button>
<div class="SpoilerTarget bbCodeSpoilerText">General<br>
Complete name : Zip Zip - S01E01 - Bye Bye Bathtime [Oj5ilnxRVcc] (26020228).mp4<br>
Format : MPEG-4<br>
Format profile : Base Media<br>
Codec ID : isom (isom/iso2/avc1/mp41)<br>
File size : 117 MiB<br>
Duration : 11 min 35 s<br>
Overall bit rate : 1 411 kb/s<br>
Writing application : Lavf59.16.100<br>
<br>
Video<br>
ID : 1<br>
Format : AVC<br>
Format/Info : Advanced Video Codec<br>
Format profile : High@L4<br>
Format settings : CABAC / 3 Ref Frames<br>
Format settings, CABAC : Yes<br>
Format settings, Reference frames : 3 frames<br>
Codec ID : avc1<br>
Codec ID/Info : Advanced Video Coding<br>
Duration : 11 min 34 s<br>
Bit rate : 1 312 kb/s<br>
Width : 1 920 pixels<br>
Height : 1 080 pixels<br>
Display aspect ratio : 16:9<br>
Frame rate mode : Constant<br>
Frame rate : 25.000 FPS<br>
Color space : YUV<br>
Chroma subsampling : 4:2:0<br>
Bit depth : 8 bits<br>
Scan type : Progressive<br>
Bits/(Pixel*Frame) : 0.025<br>
Stream size : 109 MiB (93%)<br>
Color range : Limited<br>
Color primaries : BT.709<br>
Transfer characteristics : BT.709<br>
Matrix coefficients : BT.709<br>
Codec configuration box : avcC<br>
<br>
Audio<br>
ID : 2<br>
Format : AAC LC<br>
Format/Info : Advanced Audio Codec Low Complexity<br>
Codec ID : mp4a-40-2<br>
Duration : 11 min 35 s<br>
Bit rate mode : Constant<br>
Bit rate : 93.6 kb/s<br>
Channel(s) : 1 channel<br>
Channel layout : C<br>
Sampling rate : 44.1 kHz<br>
Frame rate : 43.066 FPS (1024 SPF)<br>
Compression mode : Lossy<br>
Stream size : 7.75 MiB (7%)<br>
Default : Yes<br>
Alternate group : 1</div>
</div><br>
<b>Notes:</b> Made a playlist of the episodes from YouTube and downloaded the series so I could rename them following a general naming scheme. I've left the youtube video id's in the square brackets, the round brackets are a crc32 hash value. A playlist with all the episodes can be found <a href="https://www.youtube.com/playlist?list=PL_ZK7T-qMlYhnvjmeS2nOWeNRme4xHhv7" target="_blank" class="externalLink" rel="nofollow">here</a>.
<div class="messageTextEndMarker">&nbsp;</div>
</blockquote>
</article>]]></description>
                <author><![CDATA[TeamK9]]></author>
                </item>

                </channel></rss>